<svg xmlns="http://www.w3.org/2000/svg" width="21.699" height="23.898" viewBox="0 0 21.699 23.898">
    <defs>
        <style>
            .cls-1{fill:#f2f2f2;stroke:#172736}.cls-2{fill:#172736}.cls-3{stroke:none}.cls-4{fill:none}
        </style>
    </defs>
    <g id="Group_123" data-name="Group 123" transform="translate(-118 -60)">
        <g id="Rectangle_1253" class="cls-1" data-name="Rectangle 1253" transform="translate(118 66.598)">
            <rect width="15.139" height="17.302" class="cls-3" rx="2"/>
            <rect width="14.139" height="16.302" x=".5" y=".5" class="cls-4" rx="1.5"/>
        </g>
        <g id="Rectangle_1254" class="cls-1" data-name="Rectangle 1254" transform="translate(121.244 63.325)">
            <rect width="15.131" height="17.331" class="cls-3" rx="2"/>
            <rect width="14.131" height="16.331" x=".5" y=".5" class="cls-4" rx="1.5"/>
        </g>
        <g id="Rectangle_1255" class="cls-1" data-name="Rectangle 1255" transform="translate(124.561 60)">
            <rect width="15.139" height="17.302" class="cls-3" rx="2"/>
            <rect width="14.139" height="16.302" x=".5" y=".5" class="cls-4" rx="1.5"/>
        </g>
        <path id="Path_238" d="M175.689 83.085l-5.34-3.092a.232.232 0 0 0-.349.207v6.185a.232.232 0 0 0 .348.2l5.34-3.092a.232.232 0 0 0 0-.411z" class="cls-2" data-name="Path 238" transform="translate(-39.992 -14.662)"/>
    </g>
</svg>
