<svg xmlns="http://www.w3.org/2000/svg" viewBox="0 0 36.0054 27.58052"><defs><style>.cls-1{fill:#f2f2f2;}</style></defs><title>Play_all_Suite</title><g id="圖層_2" data-name="圖層 2"><g id="圖層_1-2" data-name="圖層 1"><path class="cls-1" d="M35.84358,22.65409l-7.46177-4.32088a.32436.32436,0,0,0-.4869.2807v8.64177a.32436.32436,0,0,0,.4869.2807l7.46177-4.32088A.32436.32436,0,0,0,35.84358,22.65409Z"/><path class="cls-1" d="M12.54674,7.79646H1.82343A1.82454,1.82454,0,0,0,0,9.6199V25.00572a1.82454,1.82454,0,0,0,1.82343,1.82343H12.54674a1.82454,1.82454,0,0,0,1.82344-1.82343V9.6199A1.83063,1.83063,0,0,0,12.54674,7.79646ZM13.09,25.001a.54837.54837,0,0,1-.548.548H1.81871a.54837.54837,0,0,1-.548-.548V9.6199a.54837.54837,0,0,1,.548-.548H12.542a.54837.54837,0,0,1,.548.548Z"/><path class="cls-1" d="M16.64711,3.76223H5.9238A1.82454,1.82454,0,0,0,4.10037,5.58567a.63773.63773,0,1,0,1.27546,0,.54837.54837,0,0,1,.548-.548H16.64711a.54837.54837,0,0,1,.548.548V20.97149a.54837.54837,0,0,1-.548.548.63773.63773,0,1,0,0,1.27546,1.82454,1.82454,0,0,0,1.82343-1.82343V5.58567A1.82454,1.82454,0,0,0,16.64711,3.76223Z"/><path class="cls-1" d="M20.98242,0H10.25911A1.82454,1.82454,0,0,0,8.43568,1.82343a.63773.63773,0,0,0,1.27546,0,.54837.54837,0,0,1,.548-.548H20.98242a.54837.54837,0,0,1,.548.548V17.20926a.54837.54837,0,0,1-.548.548.63773.63773,0,1,0,0,1.27546,1.82454,1.82454,0,0,0,1.82343-1.82343V1.82343A1.82454,1.82454,0,0,0,20.98242,0Z"/></g></g></svg>